<svg xmlns="http://www.w3.org/2000/svg" viewBox="0 0 1200 675" font-family="'IBM Plex Mono', Consolas, monospace">
  <rect width="1200" height="675" fill="#0d1117"/>
  <text x="60" y="70" fill="#00ff88" font-size="22" letter-spacing="6">SR_REQUEST</text>
  <text x="60" y="120" fill="#e6edf3" font-size="40" font-weight="bold">요청서 — 급하게 떨어진 개발 건</text>

  <!-- 요청서 카드 -->
  <rect x="60" y="160" width="660" height="470" rx="14" fill="#161b22" stroke="#21262d" stroke-width="2"/>
  <rect x="60" y="160" width="660" height="66" rx="14" fill="#1f2733"/>
  <text x="90" y="204" fill="#e6edf3" font-size="26" font-weight="bold">개인정보처리방침 수정 요청</text>
  <rect x="618" y="176" width="82" height="34" rx="17" fill="#ff6b35"/>
  <text x="659" y="201" fill="#0d1117" font-size="18" font-weight="bold" text-anchor="middle">긴급</text>

  <g font-size="23">
    <text x="92" y="278" fill="#8b949e">대상</text><text x="270" y="278" fill="#e6edf3">○○업무시스템</text>
    <text x="92" y="330" fill="#8b949e">출처</text><text x="270" y="330" fill="#e6edf3">타 부서 (내 SR 아님)</text>
    <text x="92" y="382" fill="#8b949e">범위</text><text x="270" y="382" fill="#4d9fff">frontend 뿐 · JS 없음</text>
    <text x="92" y="434" fill="#8b949e">배포</text><text x="270" y="434" fill="#e6edf3">회사 PC → SVN 연결</text>
    <text x="92" y="486" fill="#8b949e">기한</text><text x="270" y="486" fill="#ff6b35" font-weight="bold">3일 이내</text>
    <text x="92" y="538" fill="#8b949e">상세</text><text x="270" y="538" fill="#6e7681">— 명확한 정의 없음 —</text>
  </g>
  <line x1="92" y1="566" x2="688" y2="566" stroke="#21262d" stroke-width="1"/>
  <text x="92" y="604" fill="#00ff88" font-size="22">난이도: 낮음 (로직 상으론)</text>

  <!-- 눈에 밟힌 것 -->
  <rect x="750" y="160" width="390" height="470" rx="14" fill="#161b22" stroke="#ff6b35" stroke-width="2"/>
  <text x="778" y="212" fill="#ff6b35" font-size="26" font-weight="bold">⚠ CSS에서 걸린 것</text>
  <rect x="778" y="240" width="334" height="150" rx="8" fill="#0d1117" stroke="#30363d" stroke-width="1"/>
  <text x="800" y="288" fill="#e6edf3" font-size="24">#id1 { ... }</text>
  <text x="800" y="330" fill="#e6edf3" font-size="24">#id1 { ... }</text>
  <text x="1000" y="330" fill="#ff6b35" font-size="22">← 중복</text>
  <text x="800" y="372" fill="#6e7681" font-size="19">같은 id로 중복 선언</text>
  <text x="778" y="446" fill="#adbac7" font-size="23">건드리면 사이드</text>
  <text x="778" y="480" fill="#adbac7" font-size="23">이펙트 우려</text>
  <rect x="778" y="506" width="334" height="56" rx="8" fill="#1f2733"/>
  <text x="800" y="543" fill="#00ff88" font-size="23">→ 그대로 유지</text>ㅊㅇ
</svg>
